<?xml version="1.0" encoding="utf-8"?>
<!-- Generator: Adobe Illustrator 18.0.0, SVG Export Plug-In . SVG Version: 6.00 Build 0)  -->
<!DOCTYPE svg PUBLIC "-//W3C//DTD SVG 1.1//EN" "http://www.w3.org/Graphics/SVG/1.1/DTD/svg11.dtd">
<svg version="1.1" id="Layer_1" xmlns="http://www.w3.org/2000/svg" xmlns:xlink="http://www.w3.org/1999/xlink" x="0px" y="0px"
	 viewBox="0 0 28 28" enable-background="new 0 0 28 28" xml:space="preserve">
<g>
	<path fill="#7FBDEB" d="M16.7,9.6c0.8-3.1,2.6-4.3,4.9-4.7C21.5,3,20.3,1.6,18.9,1c-2.3-0.9-4.9,0.1-5.8,2.4
		C11.9,6.2,13.8,9.2,16.7,9.6z"/>
	<path fill="#8FCF69" d="M18.8,12.8c2.8-1.6,4.9-1.2,6.8,0.1c1.2-1.5,1.4-3.2,0.8-4.7c-0.9-2.3-3.6-3.3-5.8-2.4
		C17.8,7,16.9,10.5,18.8,12.8z"/>
	<path fill="#FFE800" d="M24.1,12.9c-2.8-1.2-5.8,0.7-6.1,3.7c3.1,0.8,4.3,2.6,4.7,4.9c1.9-0.2,3.2-1.3,3.8-2.7
		C27.5,16.4,26.4,13.8,24.1,12.9z"/>
	<path fill="#FF993D" d="M14.8,18.6c1.6,2.8,1.2,4.9-0.1,6.8c1.5,1.2,3.2,1.4,4.7,0.8c2.3-0.9,3.3-3.6,2.4-5.8
		C20.6,17.6,17.1,16.7,14.8,18.6z"/>
	<path fill="#EC5A4F" d="M11,17.8c-0.8,3.1-2.6,4.3-4.9,4.7c0.2,1.9,1.3,3.2,2.7,3.8c2.3,0.9,4.9-0.1,5.8-2.4
		C15.9,21.2,14,18.1,11,17.8z"/>
	<path fill="#E254A8" d="M9,14.6c-2.8,1.6-4.9,1.2-6.8-0.1c-1.2,1.5-1.4,3.2-0.8,4.7c0.9,2.3,3.6,3.3,5.8,2.4
		C10,20.4,10.8,16.9,9,14.6z"/>
	<path fill="#A67EC4" d="M3.6,14.5c2.8,1.2,5.8-0.7,6.1-3.7C6.6,10,5.4,8.2,5.1,5.9C3.2,6.1,1.8,7.2,1.2,8.7
		C0.3,10.9,1.4,13.5,3.6,14.5z"/>
	<path fill="#00B3E6" d="M13,8.8C11.4,6,11.8,3.8,13.1,2c-1.5-1.2-3.2-1.4-4.7-0.8C6.2,2.1,5.1,4.7,6.1,7C7.2,9.8,10.7,10.6,13,8.8z
		"/>
</g>
</svg>
