<?xml version="1.0" encoding="utf-8"?>
<!-- Generator: Adobe Illustrator 18.0.0, SVG Export Plug-In . SVG Version: 6.00 Build 0)  -->
<!DOCTYPE svg PUBLIC "-//W3C//DTD SVG 1.1//EN" "http://www.w3.org/Graphics/SVG/1.1/DTD/svg11.dtd">
<svg version="1.1" id="Layer_1" xmlns="http://www.w3.org/2000/svg" xmlns:xlink="http://www.w3.org/1999/xlink" x="0px" y="0px"
	 viewBox="0 0 28 26" enable-background="new 0 0 28 26" xml:space="preserve">
<g>
	<ellipse fill="#836858" cx="11.067" cy="14.156" rx="0.969" ry="0.909"/>
	<ellipse fill="#836858" cx="17.214" cy="14.157" rx="0.969" ry="0.909"/>
	<path fill="#836858" d="M26.759,20.219c-1.524-1.326-1.545-2.092-1.574-3.152c-0.004-0.135-0.007-0.272-0.014-0.412
		c-0.05-1.055,0.021-1.383,0.281-2.6c0.052-0.242,0.111-0.516,0.177-0.835c0.004-0.018,0.007-0.036,0.009-0.054
		c0.19-1.499,0.095-3.01-0.166-4.263c-0.012-0.056-0.03-0.104-0.051-0.149c-1.891-7.898-10.36-7.74-10.442-7.741
		c-0.021,0.001-0.04,0.005-0.061,0.008c-0.048-0.012-0.098-0.019-0.15-0.02C14.498,0.995,8.107,0.918,4.536,4.884
		c-1.875,2.081-2.606,4.868-2.174,8.283c0.002,0.018,0.005,0.036,0.009,0.054c0.066,0.318,0.125,0.592,0.177,0.835
		c0.261,1.217,0.331,1.545,0.281,2.6c-0.007,0.14-0.01,0.277-0.014,0.412c-0.029,1.061-0.05,1.827-1.574,3.152
		c-0.263,0.229-0.318,0.615-0.13,0.908c0.371,0.577,1.271,1.323,2.612,1.323c0.678,0,1.468-0.191,2.359-0.689
		c0.339-0.19,0.459-0.617,0.269-0.956c-0.19-0.338-0.619-0.458-0.957-0.269c-1.357,0.759-2.216,0.523-2.678,0.226
		c1.445-1.468,1.476-2.579,1.505-3.657c0.003-0.126,0.007-0.254,0.013-0.385c0.058-1.237-0.042-1.706-0.311-2.959
		c-0.05-0.233-0.106-0.495-0.169-0.798C3.383,9.986,3.996,7.586,5.577,5.827c3.136-3.488,9.105-3.421,9.165-3.423
		c0.033,0.002,0.065-0.003,0.097-0.006c0.056,0.012,0.113,0.02,0.173,0.018c0.307-0.002,7.61-0.076,9.124,6.95
		c0.208,1.067,0.27,2.311,0.11,3.596c-0.063,0.303-0.119,0.566-0.169,0.798c-0.268,1.253-0.369,1.722-0.311,2.959
		c0.006,0.131,0.01,0.259,0.013,0.385c0.029,1.079,0.06,2.19,1.508,3.66c-0.458,0.297-1.316,0.535-2.681-0.229
		c-0.338-0.189-0.767-0.069-0.957,0.269c-0.19,0.338-0.069,0.766,0.269,0.956c0.892,0.499,1.682,0.689,2.359,0.689
		c1.341,0,2.241-0.746,2.612-1.323C27.077,20.834,27.022,20.448,26.759,20.219z"/>
	<path fill="#836858" d="M23.024,14.892c0.004-0.141,0.019-1.396-0.653-2.137c-0.004-0.004-0.008-0.007-0.012-0.01
		c-0.083-1.605-0.394-2.802-0.414-2.877c-0.072-0.268-0.29-0.457-0.546-0.506c-0.044-0.024-0.09-0.045-0.139-0.059
		c-0.119-0.036-2.945-0.9-4.66-2.66c-0.462-0.475-0.861-0.883-1.413-0.772c-0.517,0.105-0.69,0.551-0.895,1.079
		c-1.96,5.038-6.875,4.072-7.082,4.029c-0.379-0.079-0.752,0.16-0.834,0.539c-0.082,0.379,0.16,0.752,0.539,0.834
		c0.018,0.004,0.564,0.115,1.387,0.115c1.97,0,5.529-0.635,7.251-4.884c0.012,0.013,0.025,0.026,0.038,0.039
		c1.735,1.781,4.32,2.72,5.076,2.967c0.161,0.766,0.481,2.664,0.188,4.583c-0.005,0.031-0.202,1.18-0.727,2.609
		c-0.885,0.843-2.288,1.536-4.516,1.536c-0.001,0-0.002,0-0.003,0c-0.314-0.398-0.887-0.668-1.549-0.668
		c-0.997,0-1.805,0.604-1.805,1.351c0,0.746,0.808,1.351,1.805,1.351c0.643,0,1.204-0.254,1.523-0.633
		c0.009,0,0.018,0.003,0.028,0.003c1.376,0,2.494-0.234,3.409-0.606c-1.049,1.727-2.635,3.244-4.975,3.244
		c-0.026,0-0.051,0.005-0.077,0.008c-0.026-0.003-0.051-0.008-0.077-0.008c-5.387,0-6.463-8.079-6.473-8.161
		c-0.048-0.384-0.397-0.657-0.785-0.61c-0.385,0.048-0.659,0.398-0.611,0.782c0.048,0.383,1.24,9.392,7.87,9.392
		c0.026,0,0.051-0.005,0.077-0.008c0.026,0.003,0.051,0.008,0.077,0.008c4.161,0,6.306-3.561,7.342-6.296
		C22.829,16.849,23.02,14.948,23.024,14.892z"/>
</g>
</svg>
