<?xml version="1.0" encoding="utf-8"?>
<!-- Generator: Adobe Illustrator 18.0.0, SVG Export Plug-In . SVG Version: 6.00 Build 0)  -->
<!DOCTYPE svg PUBLIC "-//W3C//DTD SVG 1.1//EN" "http://www.w3.org/Graphics/SVG/1.1/DTD/svg11.dtd">
<svg version="1.1" id="Layer_1" xmlns="http://www.w3.org/2000/svg" xmlns:xlink="http://www.w3.org/1999/xlink" x="0px" y="0px"
	 viewBox="0 0 27 27" enable-background="new 0 0 27 27" xml:space="preserve">
<g>
	<path fill="#836858" d="M13.5,2.22V1.5c-6.63,0-12,5.36-12,11.98c0,6.61,5.37,11.97,12,11.98c6.63,0,12-5.36,12-11.98
		c0-6.61-5.37-11.98-12-11.98V2.22v0.72c2.92,0,5.56,1.18,7.47,3.09c1.91,1.91,3.09,4.54,3.09,7.45c0,2.91-1.18,5.54-3.09,7.45
		c-1.91,1.91-4.55,3.09-7.47,3.09c-2.92,0-5.56-1.18-7.47-3.09c-1.91-1.91-3.09-4.54-3.09-7.45c0-2.91,1.18-5.54,3.09-7.45
		c1.91-1.91,4.55-3.09,7.47-3.09V2.22z"/>
	<path fill="#836858" d="M11.08,8.42l5.06,5.05l-5.06,5.05c-0.28,0.28-0.28,0.73,0,1.01c0.28,0.28,0.73,0.28,1.02,0l5.57-5.56
		c0.13-0.13,0.21-0.32,0.21-0.51c0-0.19-0.08-0.37-0.21-0.51L12.1,7.41c-0.28-0.28-0.74-0.28-1.02,0C10.8,7.69,10.8,8.14,11.08,8.42
		L11.08,8.42z"/>
</g>
</svg>
