<?xml version="1.0" encoding="utf-8"?>
<!-- Generator: Adobe Illustrator 18.0.0, SVG Export Plug-In . SVG Version: 6.00 Build 0)  -->
<!DOCTYPE svg PUBLIC "-//W3C//DTD SVG 1.1//EN" "http://www.w3.org/Graphics/SVG/1.1/DTD/svg11.dtd">
<svg version="1.1" id="Layer_1" xmlns="http://www.w3.org/2000/svg" xmlns:xlink="http://www.w3.org/1999/xlink" x="0px" y="0px"
	 viewBox="0 0 28 25" enable-background="new 0 0 28 25" xml:space="preserve">
<path fill="#836858" d="M26.683,3.424L20.74,0.905c0,0-0.54-0.163-0.828-0.163c0,0-3.052-0.001-3.168,0.016
	c-0.086,0.013-0.189,0.038-0.295,0.086c-0.16,0.07-0.311,0.193-0.415,0.325c-0.106,0.133-0.178,0.272-0.24,0.422
	c-0.228,0.546-0.518,0.801-0.83,0.97C14.651,2.725,14.292,2.778,14,2.777c-0.292,0.001-0.651-0.052-0.964-0.216
	c-0.312-0.168-0.602-0.423-0.83-0.97C12.151,1.457,12.088,1.333,12,1.213c-0.066-0.089-0.147-0.176-0.244-0.249
	c-0.145-0.11-0.32-0.175-0.456-0.199C11.163,0.74,8.088,0.742,8.088,0.742c-0.288,0-0.57,0.057-0.834,0.166L1.317,3.424l0.006-0.002
	C1.016,3.549,0.699,3.751,0.439,4.066C0.179,4.379-0.003,4.822,0,5.314c0,0.282,0.16,0.862,0.16,0.862
	c0,0.001,1.25,3.553,1.322,3.734c0.161,0.417,0.459,0.747,0.793,0.933c0.334,0.188,0.679,0.246,0.981,0.247
	c0.278-0.001,0.524-0.048,0.738-0.118c0,0,1.577-0.573,1.646-0.574l0.012,12.404c-0.001,0.582,0.229,1.145,0.645,1.557l-0.002-0.002
	C6.708,24.773,7.271,25,7.852,25H14h6.148c0.581,0,1.144-0.227,1.558-0.643l-0.002,0.002c0.415-0.413,0.646-0.976,0.645-1.557
	c0,0-0.044-12.371-0.025-12.419c0,0,0.567,0.211,0.967,0.347c0.4,0.136,1.176,0.36,1.454,0.361c0.302,0,0.647-0.058,0.981-0.247
	c0.334-0.185,0.631-0.515,0.793-0.932c0.072-0.181,1.321-3.733,1.322-3.734c0,0,0.16-0.58,0.16-0.862
	c0.003-0.492-0.179-0.935-0.439-1.247C27.301,3.75,26.683,3.424,26.683,3.424s-0.332,1.487-0.265,1.571
	c0.067,0.088,0.105,0.163,0.108,0.318c0,0.09-0.64,1.998-0.862,2.628c-0.221,0.627-0.432,1.214-0.516,1.427
	c-0.057,0.133-0.098,0.161-0.151,0.195c-0.053,0.031-0.143,0.055-0.252,0.055c-0.098,0.001-0.207-0.02-0.272-0.043l0.004,0.001
	c0,0-2.632-0.872-2.736-0.872c-0.1,0-0.21,0.018-0.311,0.059c-0.18,0.07-0.311,0.198-0.384,0.306
	c-0.111,0.165-0.134,0.289-0.153,0.38c-0.016,0.091-0.017,13.352-0.017,13.352c-0.001,0.202-0.075,0.379-0.212,0.517
	c0,0-0.318,0.211-0.516,0.211H7.852c-0.198,0-0.516-0.211-0.516-0.211c-0.137-0.138-0.211-0.315-0.212-0.517l0-13.153
	c-0.003-0.067,0.003-0.177-0.063-0.37C7.026,9.184,6.967,9.056,6.829,8.927c-0.068-0.063-0.47-0.221-0.57-0.221
	c-0.105,0-0.196,0.018-0.273,0.043l-0.032,0.01l0.034-0.011C5.91,8.772,5.734,8.831,5.49,8.913C4.766,9.156,3.352,9.62,3.255,9.619
	c-0.11,0-0.346-0.116-0.403-0.25c-0.056-0.14-0.17-0.453-0.303-0.826C2.348,7.981,2.099,7.269,1.9,6.698
	c-0.199-0.571-0.346-1-0.347-1.001L1.551,5.692L1.549,5.686C1.491,5.525,1.474,5.404,1.474,5.314
	c0.003-0.155,0.041-0.23,0.108-0.318C1.649,4.911,1.765,4.83,1.887,4.78l5.937-2.516L7.818,2.266
	c0.084-0.035,0.179-0.054,0.27-0.054l2.753-0.066c0.341,0.846,0.916,1.413,1.513,1.718C12.952,4.174,13.546,4.247,14,4.247
	c0.454-0.001,1.048-0.073,1.645-0.383c0.597-0.306,1.173-0.872,1.513-1.718l-0.023-0.011l0,0c0,0-0.048,0.04,0,0l2.777,0.077
	c0.091,0,0.186,0.019,0.27,0.054l6.237,2.729"/>
</svg>
