<?xml version="1.0" encoding="utf-8"?>
<!-- Generator: Adobe Illustrator 18.0.0, SVG Export Plug-In . SVG Version: 6.00 Build 0)  -->
<!DOCTYPE svg PUBLIC "-//W3C//DTD SVG 1.1//EN" "http://www.w3.org/Graphics/SVG/1.1/DTD/svg11.dtd">
<svg version="1.1" id="Layer_1" xmlns="http://www.w3.org/2000/svg" xmlns:xlink="http://www.w3.org/1999/xlink" x="0px" y="0px"
	 viewBox="0 0 53 53" enable-background="new 0 0 53 53" xml:space="preserve">
<circle fill="#10A6DF" cx="26.5" cy="26.5" r="26.5"/>
<g>
	<g>
		<path fill="#FFFFFF" d="M25.2,13.1v27.1c0,0.7,0.6,1.3,1.3,1.3c0.7,0,1.3-0.6,1.3-1.3V13.1c0-0.7-0.6-1.3-1.3-1.3
			C25.8,11.8,25.2,12.4,25.2,13.1"/>
		<path fill="#FFFFFF" d="M40.1,25.3H12.9c-0.7,0-1.3,0.6-1.3,1.3c0,0.7,0.6,1.3,1.3,1.3h27.1c0.7,0,1.3-0.6,1.3-1.3
			C41.3,25.9,40.8,25.3,40.1,25.3"/>
	</g>
</g>
</svg>
